<svg width="24" height="24" viewBox="0 0 24 24" fill="none" xmlns="http://www.w3.org/2000/svg"><path d="M20.39 16.857a.813.813 0 00-.427-.585l-3.44-2.027-.03-.016a1.022 1.022 0 00-.464-.108c-.288 0-.563.11-.755.3l-1.015 1.017a.594.594 0 01-.228.103c-.012-.001-1.181-.085-3.335-2.24-2.15-2.149-2.24-3.322-2.242-3.322a.542.542 0 01.103-.245l.866-.865c.305-.306.396-.813.215-1.206L7.726 4.065a.79.79 0 00-.709-.463.815.815 0 00-.576.248l-2.36 2.355a1.807 1.807 0 00-.464.935c-.02.152-.44 3.767 4.517 8.724 4.207 4.206 7.488 4.533 8.394 4.533.11.002.22-.004.33-.017.316-.042.709-.236.934-.462l2.358-2.358a.813.813 0 00.24-.703z" fill="#000"/></svg>