<svg width="184" height="100" viewBox="0 0 184 100" fill="none" xmlns="http://www.w3.org/2000/svg">
<g clip-path="url(#clip0_488_63)">
<path d="M100.938 3.02518C102.035 2.01833 103.33 1.25233 104.74 0.776549C106.125 0.267703 107.587 0.00489215 109.062 -6.21262e-06C110.367 -0.0281924 111.668 0.161223 112.911 0.560464C113.906 0.873742 114.825 1.38865 115.612 2.07306C116.283 2.67995 116.801 3.43646 117.125 4.28117C117.468 5.08578 117.642 5.95219 117.638 6.82692V17.2868C117.638 18.0093 117.638 18.6373 117.685 19.2721C117.732 19.9068 117.753 20.4538 117.813 21.0007H114.356C114.268 19.9676 114.228 18.9277 114.228 17.8945H114.12C113.386 19.1036 112.322 20.0782 111.054 20.7036C109.761 21.2719 108.36 21.5507 106.948 21.5207C106.034 21.5224 105.125 21.3927 104.247 21.1358C103.42 20.8919 102.646 20.4957 101.965 19.9676C101.332 19.4468 100.816 18.7978 100.452 18.0633C100.063 17.2172 99.8713 16.2935 99.8918 15.3623C99.8512 14.1944 100.152 13.04 100.756 12.04C101.375 11.134 102.204 10.3924 103.174 9.87912C104.294 9.27395 105.508 8.86297 106.766 8.66364C108.219 8.40058 109.692 8.27174 111.169 8.27874H114.025V7.42791C114.022 6.89352 113.919 6.36439 113.721 5.86805C113.514 5.36136 113.206 4.90194 112.816 4.51752C112.393 4.07531 111.876 3.73377 111.304 3.51813C110.616 3.24692 109.882 3.11605 109.143 3.13322C108.461 3.11974 107.781 3.19234 107.117 3.34931C106.595 3.48269 106.088 3.67054 105.605 3.90978C105.159 4.10241 104.74 4.34966 104.355 4.64582L103.275 5.46289L100.938 3.02518ZM111.918 11.1284C110.964 11.1313 110.01 11.1899 109.062 11.3039C108.164 11.3778 107.279 11.5662 106.428 11.8644C105.7 12.1222 105.037 12.5345 104.484 13.0731C103.984 13.6133 103.719 14.3298 103.748 15.0652C103.705 15.5543 103.791 16.0461 103.995 16.4923C104.2 16.9386 104.517 17.324 104.916 17.6109C105.899 18.1758 107.024 18.4454 108.157 18.3875C109.084 18.4115 110.005 18.2365 110.858 17.8743C111.561 17.536 112.181 17.0473 112.675 16.4427C113.127 15.8813 113.464 15.2366 113.667 14.5452C113.865 13.8557 113.968 13.1423 113.971 12.4249V11.1486L111.918 11.1284Z" fill="#58634F"/>
<path d="M123.263 0.519972H127.152V3.67346H127.24C127.504 3.12422 127.863 2.62588 128.3 2.20138C128.722 1.75348 129.201 1.36298 129.725 1.03993C130.274 0.720079 130.862 0.472673 131.474 0.303887C132.087 0.105007 132.727 0.00249674 133.371 1.76529e-05C133.958 -0.00660885 134.541 0.0800059 135.1 0.256618L134.931 4.45001C134.614 4.36223 134.297 4.2947 133.979 4.23393C133.037 4.0756 132.071 4.12919 131.151 4.39083C130.232 4.65247 129.383 5.11558 128.665 5.74652C127.661 6.81344 127.157 8.47009 127.152 10.7165V21.0008H123.263V0.519972Z" fill="#58634F"/>
<path d="M153.15 5.96259C152.498 5.26463 151.722 4.6944 150.861 4.28118C149.987 3.85515 149.024 3.64665 148.052 3.67344C147.081 3.65214 146.118 3.86037 145.243 4.28118C144.452 4.64629 143.758 5.19218 143.217 5.87481C142.681 6.57725 142.272 7.36795 142.008 8.21122C141.749 9.08804 141.617 9.99777 141.617 10.9123C141.616 11.8338 141.779 12.7482 142.096 13.6133C142.403 14.4279 142.861 15.1771 143.447 15.8215C144.031 16.4576 144.736 16.9716 145.52 17.3341C146.376 17.687 147.295 17.8639 148.221 17.854C149.188 17.8799 150.149 17.6859 151.03 17.2868C151.852 16.851 152.585 16.2646 153.191 15.5581L155.986 18.3672C155.027 19.4586 153.808 20.2902 152.441 20.7847C151.086 21.2821 149.651 21.5314 148.207 21.5207C146.713 21.5407 145.228 21.2772 143.832 20.7441C142.574 20.2552 141.426 19.5206 140.455 18.5833C139.496 17.6207 138.745 16.4716 138.247 15.207C137.716 13.8125 137.452 12.3302 137.471 10.838C137.453 9.34803 137.716 7.86807 138.247 6.47579C138.749 5.2035 139.5 4.04416 140.455 3.0657C141.42 2.11082 142.569 1.36188 143.832 0.864341C145.227 0.305047 146.718 0.0251439 148.221 0.0405176C149.688 0.0355798 151.142 0.315359 152.502 0.864341C153.872 1.37371 155.102 2.20244 156.088 3.28179L153.15 5.96259Z" fill="#58634F"/>
<path d="M100.615 95.7999C100.597 95.0435 100.752 94.2931 101.067 93.6052C101.347 93.005 101.789 92.495 102.343 92.1332C102.901 91.7841 103.549 91.6057 104.207 91.62C104.995 91.5818 105.771 91.8207 106.402 92.2952C107.014 92.804 107.433 93.507 107.59 94.2873H105.949C105.839 93.9146 105.618 93.5846 105.314 93.3419C104.912 93.0644 104.419 92.9512 103.935 93.0252C103.452 93.0993 103.016 93.3551 102.715 93.7403C102.32 94.3392 102.13 95.0501 102.174 95.7661C102.135 96.4816 102.324 97.1911 102.715 97.7919C102.886 98.0254 103.111 98.2142 103.371 98.3424C103.631 98.4705 103.917 98.5341 104.207 98.5279C104.601 98.5493 104.99 98.433 105.308 98.199C105.626 97.9649 105.853 97.6276 105.949 97.2449H107.59C107.41 98.0137 106.989 98.7048 106.388 99.2167C105.772 99.7125 104.997 99.9691 104.207 99.9392C103.549 99.9535 102.901 99.7751 102.343 99.426C101.793 99.0592 101.352 98.5506 101.067 97.954C100.762 97.2773 100.607 96.5422 100.615 95.7999Z" fill="#58634F"/>
<path d="M112.283 100C111.621 100.011 110.97 99.8327 110.406 99.4868C109.841 99.1258 109.385 98.6166 109.089 98.0147C108.756 97.3248 108.592 96.5657 108.61 95.7998C108.595 95.0393 108.764 94.2865 109.103 93.6052C109.398 93.0002 109.86 92.4921 110.434 92.1404C111.008 91.7888 111.671 91.6082 112.344 91.62C113.018 91.6069 113.682 91.7869 114.258 92.1386C114.833 92.4903 115.296 92.9992 115.592 93.6052C115.93 94.2865 116.1 95.0393 116.085 95.7998C116.101 96.5621 115.927 97.3162 115.578 97.9945C115.273 98.6059 114.806 99.1221 114.228 99.4868C113.64 99.8365 112.967 100.014 112.283 100ZM112.283 98.5414C112.668 98.5432 113.045 98.4354 113.37 98.2308C113.733 98.0096 114.024 97.6884 114.208 97.3057C114.417 96.8349 114.525 96.3253 114.525 95.81C114.525 95.2947 114.417 94.7851 114.208 94.3143C114.032 93.9329 113.751 93.6096 113.397 93.3824C113.068 93.1834 112.691 93.0782 112.307 93.0782C111.922 93.0782 111.545 93.1834 111.216 93.3824C110.871 93.6112 110.599 93.9348 110.433 94.3143C110.223 94.7806 110.121 95.2885 110.136 95.7998C110.092 96.5247 110.305 97.2419 110.737 97.8256C110.923 98.0549 111.159 98.2385 111.427 98.3626C111.695 98.4867 111.988 98.5478 112.283 98.5414Z" fill="#58634F"/>
<path d="M121.284 91.62C121.826 91.6091 122.36 91.7444 122.831 92.0116C123.3 92.2883 123.674 92.7002 123.904 93.1933C124.181 93.7818 124.316 94.4273 124.296 95.0773V99.8717H122.79V95.3272C122.831 94.7322 122.656 94.1424 122.297 93.666C122.132 93.4712 121.925 93.317 121.69 93.2151C121.456 93.1133 121.202 93.0665 120.947 93.0785C120.692 93.069 120.438 93.1169 120.205 93.2186C119.971 93.3203 119.763 93.4732 119.596 93.666C119.237 94.1424 119.062 94.7322 119.103 95.3272V99.8717H117.584V91.7685H119.103V92.7004C119.35 92.3661 119.674 92.0971 120.049 91.9171C120.432 91.7247 120.855 91.623 121.284 91.62Z" fill="#58634F"/>
<path d="M128.888 100C128.351 100.011 127.819 99.895 127.335 99.6624C126.901 99.4434 126.529 99.1182 126.255 98.717C125.99 98.3152 125.843 97.8475 125.829 97.3665H127.402C127.412 97.533 127.457 97.6956 127.532 97.8443C127.608 97.993 127.713 98.1246 127.841 98.2308C128.128 98.4656 128.491 98.588 128.861 98.5752C129.211 98.5985 129.558 98.5033 129.847 98.3051C129.956 98.229 130.045 98.1281 130.107 98.0107C130.17 97.8933 130.203 97.7627 130.205 97.6298C130.21 97.4909 130.176 97.3532 130.105 97.2335C130.035 97.1137 129.931 97.0168 129.806 96.9546C129.41 96.7564 128.996 96.5937 128.571 96.4684C128.109 96.3396 127.658 96.1771 127.22 95.9822C126.865 95.8177 126.554 95.5699 126.315 95.2597C126.051 94.8881 125.921 94.4385 125.944 93.9834C125.939 93.5641 126.059 93.1529 126.288 92.8017C126.53 92.4288 126.871 92.1316 127.274 91.9441C127.743 91.734 128.253 91.6302 128.767 91.6402C129.504 91.5906 130.232 91.8332 130.792 92.3155C131.053 92.5593 131.261 92.8543 131.402 93.1819C131.544 93.5095 131.617 93.8628 131.616 94.2197H130.104C130.091 93.8881 129.948 93.575 129.705 93.3487C129.433 93.1226 129.086 93.0069 128.733 93.0245C128.407 93.0017 128.084 93.0898 127.814 93.2744C127.71 93.3521 127.625 93.4543 127.569 93.5719C127.512 93.6896 127.485 93.8192 127.49 93.9496C127.488 94.0506 127.506 94.1509 127.543 94.2448C127.581 94.3387 127.636 94.4243 127.706 94.4966C127.854 94.6474 128.031 94.7668 128.226 94.8477C128.429 94.9288 128.733 95.0301 129.131 95.1584C129.578 95.2848 130.014 95.4474 130.434 95.6445C130.783 95.807 131.089 96.05 131.326 96.3536C131.59 96.7179 131.725 97.1598 131.711 97.6096C131.717 98.046 131.598 98.4751 131.366 98.8453C131.126 99.2179 130.784 99.5133 130.38 99.6961C129.914 99.9135 129.402 100.018 128.888 100Z" fill="#58634F"/>
<path d="M135.107 93.1191V97.6163C135.081 97.8573 135.149 98.0991 135.296 98.2916C135.488 98.4408 135.73 98.5087 135.971 98.4807H136.903V99.8852H135.728C135.154 99.9212 134.589 99.7295 134.155 99.3518C133.953 99.1162 133.8 98.8424 133.706 98.5465C133.612 98.2507 133.579 97.9389 133.608 97.6298V93.1191H132.744V91.7685H133.608V89.7427H135.141V91.7685H136.924V93.1191H135.107Z" fill="#58634F"/>
<path d="M139.78 92.93C139.981 92.5376 140.284 92.2064 140.658 91.9711C141.053 91.7291 141.511 91.6072 141.974 91.62V93.3554H141.589C141.342 93.3398 141.094 93.3762 140.861 93.4622C140.629 93.5483 140.417 93.6821 140.239 93.8551C139.886 94.3637 139.726 94.9813 139.786 95.5973V99.8717H138.267V91.7685H139.78V92.93Z" fill="#58634F"/>
<path d="M150.037 91.7483V99.8514H148.518V98.8926C148.273 99.2318 147.948 99.5055 147.572 99.6894C147.191 99.873 146.773 99.9676 146.35 99.9662C145.806 99.9732 145.27 99.8358 144.797 99.5678C144.329 99.2907 143.954 98.8821 143.717 98.3929C143.446 97.8002 143.314 97.1535 143.332 96.5021V91.728H144.831V96.2523C144.793 96.8532 144.968 97.4482 145.324 97.9337C145.497 98.1176 145.707 98.2642 145.939 98.3643C146.171 98.4645 146.421 98.5161 146.674 98.5161C146.927 98.5161 147.177 98.4645 147.41 98.3643C147.642 98.2642 147.851 98.1176 148.025 97.9337C148.391 97.453 148.571 96.8556 148.531 96.2523V91.728L150.037 91.7483Z" fill="#58634F"/>
<path d="M151.53 95.7999C151.516 95.0438 151.67 94.2941 151.982 93.6052C152.266 93.0059 152.71 92.4965 153.265 92.1332C153.823 91.7841 154.471 91.6057 155.129 91.62C155.917 91.5818 156.693 91.8207 157.323 92.2952C157.936 92.8025 158.354 93.5065 158.505 94.2873H156.871C156.756 93.9154 156.533 93.5862 156.23 93.3419C155.828 93.0648 155.336 92.9518 154.854 93.0259C154.372 93.0999 153.936 93.3555 153.637 93.7403C153.239 94.3383 153.047 95.0494 153.09 95.7661C153.052 96.4823 153.244 97.1919 153.637 97.7919C153.807 98.0263 154.032 98.2157 154.292 98.3439C154.552 98.4721 154.839 98.5353 155.129 98.5279C155.523 98.5493 155.912 98.433 156.23 98.199C156.548 97.9649 156.775 97.6276 156.871 97.2449H158.505C158.345 98.0266 157.935 98.7351 157.337 99.264C156.72 99.7576 155.946 100.014 155.156 99.9865C154.498 100.001 153.85 99.8224 153.292 99.4733C152.742 99.1048 152.299 98.5969 152.009 98.0012C151.691 97.3112 151.527 96.5598 151.53 95.7999Z" fill="#58634F"/>
<path d="M161.787 93.1191V97.6163C161.761 97.8573 161.829 98.0991 161.976 98.2916C162.168 98.4401 162.41 98.508 162.651 98.4807H163.583V99.8852H162.388C161.814 99.9212 161.249 99.7295 160.815 99.3518C160.615 99.1149 160.464 98.8407 160.372 98.5451C160.279 98.2494 160.246 97.9383 160.274 97.6298V93.1191H159.363V91.7685H160.234V89.7427H161.76V91.7685H163.543V93.1191H161.787Z" fill="#58634F"/>
<path d="M165.744 90.6746C165.616 90.674 165.489 90.646 165.373 90.5924C165.256 90.5388 165.152 90.4609 165.069 90.364C164.89 90.1484 164.792 89.8774 164.792 89.5975C164.792 89.3177 164.89 89.0467 165.069 88.8311C165.152 88.7341 165.256 88.6563 165.373 88.6027C165.489 88.5491 165.616 88.5211 165.744 88.5205C165.872 88.5188 166 88.5458 166.117 88.5995C166.233 88.6532 166.337 88.7324 166.419 88.8311C166.603 89.0443 166.703 89.3163 166.703 89.5975C166.703 89.8788 166.603 90.1508 166.419 90.364C166.337 90.4627 166.233 90.5418 166.117 90.5956C166 90.6493 165.872 90.6763 165.744 90.6746ZM166.487 91.7483V99.8514H164.967V91.7483H166.487Z" fill="#58634F"/>
<path d="M171.659 100C170.998 100.01 170.347 99.832 169.782 99.4868C169.204 99.1306 168.737 98.621 168.431 98.0147C168.102 97.3237 167.938 96.5654 167.952 95.7999C167.937 95.0393 168.106 94.2865 168.445 93.6052C168.749 92.9984 169.217 92.4886 169.796 92.1332C170.374 91.7969 171.031 91.6198 171.7 91.6198C172.369 91.6198 173.026 91.7969 173.604 92.1332C174.182 92.4886 174.65 92.9984 174.955 93.6052C175.291 94.2873 175.46 95.0396 175.447 95.7999C175.463 96.5621 175.289 97.3162 174.941 97.9945C174.626 98.6103 174.147 99.1269 173.557 99.4868C172.983 99.8271 172.327 100.004 171.659 100ZM171.659 98.5414C172.046 98.5445 172.426 98.4367 172.753 98.2308C173.114 98.0079 173.405 97.6871 173.591 97.3057C173.796 96.8337 173.901 96.3246 173.901 95.81C173.901 95.2954 173.796 94.7863 173.591 94.3143C173.412 93.9324 173.129 93.6092 172.773 93.3824C172.447 93.1802 172.07 93.0748 171.686 93.0785C171.301 93.0768 170.922 93.182 170.592 93.3824C170.249 93.6132 169.977 93.9362 169.809 94.3143C169.601 94.7811 169.502 95.2891 169.519 95.7999C169.473 96.5239 169.683 97.241 170.113 97.8257C170.299 98.0545 170.536 98.2379 170.804 98.3619C171.071 98.4859 171.364 98.5473 171.659 98.5414Z" fill="#58634F"/>
<path d="M180.667 91.62C181.206 91.6097 181.738 91.745 182.207 92.0116C182.678 92.2873 183.055 92.6993 183.287 93.1933C183.559 93.7833 183.691 94.4281 183.672 95.0773V99.8717H182.166V95.3272C182.207 94.7322 182.032 94.1424 181.673 93.666C181.509 93.4705 181.301 93.3156 181.067 93.2137C180.833 93.1118 180.578 93.0655 180.323 93.0785C180.068 93.069 179.815 93.1169 179.581 93.2186C179.347 93.3203 179.139 93.4732 178.972 93.666C178.616 94.1437 178.441 94.7325 178.479 95.3272V99.8717H176.967V91.7685H178.479V92.7004C178.727 92.3676 179.052 92.099 179.425 91.9171C179.811 91.7239 180.236 91.6223 180.667 91.62Z" fill="#58634F"/>
<path d="M102.64 70.7745C102.853 70.4072 103.161 70.1039 103.532 69.8967C103.945 69.6704 104.411 69.5585 104.882 69.5726V71.1662H104.49C103.998 71.1399 103.514 71.3044 103.14 71.6254C102.788 72.078 102.624 72.6486 102.681 73.219V77.1355H101.141V69.7076H102.64V70.7745Z" fill="#58634F"/>
<path d="M113.134 73.2325C113.135 73.4856 113.117 73.7384 113.08 73.9888H107.367C107.378 74.2605 107.443 74.5273 107.559 74.7733C107.675 75.0192 107.84 75.2393 108.042 75.4204C108.441 75.7817 108.963 75.9752 109.501 75.9606C109.864 75.9849 110.227 75.8985 110.54 75.7129C110.853 75.5273 111.103 75.2511 111.257 74.9207H112.918C112.697 75.5991 112.267 76.1901 111.689 76.6088C111.053 77.0665 110.284 77.3037 109.501 77.2841C108.831 77.2963 108.17 77.1334 107.583 76.8114C107.016 76.4958 106.548 76.0281 106.233 75.4609C105.924 74.8302 105.763 74.1373 105.763 73.4351C105.763 72.7329 105.924 72.0399 106.233 71.4093C106.528 70.8409 106.984 70.3714 107.543 70.0588C108.139 69.7351 108.809 69.5722 109.487 69.5861C110.142 69.5761 110.788 69.7342 111.365 70.0453C111.904 70.3498 112.349 70.7988 112.648 71.3418C112.968 71.9202 113.136 72.5711 113.134 73.2325ZM111.527 72.7463C111.528 72.4908 111.475 72.238 111.37 72.005C111.265 71.7719 111.111 71.5642 110.919 71.3958C110.507 71.0514 109.984 70.869 109.447 70.8826C108.948 70.8773 108.466 71.0606 108.096 71.3958C107.711 71.7459 107.47 72.2276 107.421 72.7463H111.527Z" fill="#58634F"/>
<path d="M118.401 69.5523C118.945 69.5423 119.484 69.6676 119.968 69.917C120.433 70.1582 120.814 70.5349 121.062 70.9974C121.337 71.531 121.471 72.1259 121.453 72.7261V77.1153H119.927V72.9556C119.965 72.4014 119.786 71.8541 119.427 71.4295C119.253 71.2493 119.043 71.1079 118.81 71.0148C118.577 70.9217 118.327 70.879 118.077 70.8893C117.827 70.8819 117.578 70.926 117.345 71.0189C117.113 71.1119 116.902 71.2516 116.726 71.4295C116.368 71.8541 116.189 72.4014 116.227 72.9556V77.1153H114.687V69.6874H116.227V70.5382C116.487 70.2292 116.815 69.9843 117.185 69.8224C117.569 69.6534 117.982 69.5616 118.401 69.5523Z" fill="#58634F"/>
<path d="M126.646 77.2571C125.981 77.2676 125.325 77.1047 124.742 76.7844C124.174 76.4694 123.706 76.0015 123.391 75.4339C123.057 74.812 122.889 74.114 122.905 73.4081C122.887 72.7003 123.06 72.0007 123.405 71.3823C123.716 70.8115 124.184 70.3426 124.755 70.0317C125.352 69.7211 126.014 69.5588 126.687 69.5588C127.359 69.5588 128.021 69.7211 128.618 70.0317C129.186 70.3459 129.654 70.814 129.968 71.3823C130.309 72.0023 130.481 72.7008 130.468 73.4081C130.481 74.1171 130.304 74.8167 129.955 75.4339C129.62 76.0051 129.134 76.4725 128.55 76.7844C127.964 77.0956 127.31 77.2579 126.646 77.2571ZM126.646 75.9066C127.033 75.9081 127.415 75.8104 127.753 75.6229C128.112 75.4262 128.408 75.131 128.604 74.7721C128.827 74.3573 128.938 73.8921 128.928 73.4216C128.939 72.9525 128.832 72.4882 128.618 72.071C128.431 71.7138 128.145 71.4183 127.794 71.2202C127.455 71.034 127.074 70.9364 126.687 70.9364C126.299 70.9364 125.919 71.034 125.579 71.2202C125.236 71.4196 124.959 71.7155 124.782 72.071C124.572 72.4894 124.47 72.9537 124.485 73.4216C124.442 74.0977 124.659 74.7647 125.093 75.2853C125.291 75.4959 125.533 75.6615 125.801 75.771C126.069 75.8805 126.357 75.9313 126.646 75.9201V75.9066Z" fill="#58634F"/>
<path d="M134.904 75.758L137.011 69.6806H138.645L135.809 77.1085H133.973L131.15 69.6806H132.798L134.904 75.758Z" fill="#58634F"/>
<path d="M139.3 73.381C139.286 72.6922 139.441 72.0104 139.753 71.3958C140.048 70.8382 140.489 70.3713 141.029 70.0452C141.566 69.7206 142.184 69.5522 142.812 69.559C143.341 69.5488 143.866 69.6694 144.338 69.9102C144.746 70.1147 145.105 70.4049 145.391 70.761V69.6806H146.944V77.1085H145.391V76.0011C145.105 76.3691 144.74 76.669 144.324 76.8789C143.807 77.1309 143.235 77.2504 142.66 77.2269C142.084 77.2033 141.524 77.0373 141.029 76.7439C140.492 76.4134 140.052 75.9476 139.753 75.3933C139.443 74.7686 139.287 74.0784 139.3 73.381ZM145.378 73.381C145.392 72.91 145.28 72.4438 145.053 72.0305C144.861 71.6738 144.577 71.3753 144.23 71.1662C143.892 70.9718 143.509 70.8696 143.119 70.8696C142.729 70.8696 142.346 70.9718 142.008 71.1662C141.657 71.366 141.369 71.6609 141.177 72.017C140.953 72.431 140.844 72.8972 140.86 73.3675C140.85 73.8373 140.96 74.3018 141.177 74.7181C141.37 75.0842 141.656 75.392 142.008 75.6094C142.344 75.8045 142.727 75.9071 143.115 75.9065C143.507 75.9106 143.892 75.8079 144.23 75.6094C144.578 75.4022 144.863 75.1032 145.053 74.7451C145.28 74.3361 145.396 73.8754 145.391 73.4081L145.378 73.381Z" fill="#58634F"/>
<path d="M150.76 70.9501V75.0692C150.749 75.178 150.76 75.2879 150.792 75.3922C150.825 75.4966 150.878 75.5934 150.949 75.6769C151.145 75.8147 151.385 75.877 151.624 75.8525H152.569V77.1355H151.354C150.781 77.1742 150.214 77.0012 149.76 76.6493C149.561 76.4406 149.408 76.1917 149.312 75.9192C149.217 75.6466 149.181 75.3568 149.206 75.0692V70.9501H148.329V69.6941H149.233V67.8439H150.787V69.6941H152.596V70.9501H150.76Z" fill="#58634F"/>
<path d="M154.771 68.7082C154.517 68.7068 154.274 68.6048 154.095 68.4246C154.006 68.3366 153.934 68.2315 153.885 68.1156C153.837 67.9996 153.812 67.8751 153.812 67.7493C153.809 67.6191 153.833 67.4897 153.881 67.3688C153.93 67.248 154.002 67.1382 154.094 67.0461C154.186 66.954 154.296 66.8814 154.417 66.8329C154.538 66.7843 154.667 66.7607 154.798 66.7635C154.923 66.7631 155.048 66.788 155.164 66.8367C155.28 66.8854 155.385 66.957 155.473 67.0471C155.653 67.2258 155.755 67.4686 155.757 67.7223C155.759 67.8514 155.736 67.9797 155.688 68.0997C155.641 68.2196 155.569 68.3288 155.479 68.4207C155.388 68.5126 155.28 68.5854 155.16 68.6348C155.041 68.6842 154.913 68.7092 154.784 68.7082H154.771ZM155.527 69.6941V77.122H153.96V69.6941H155.527Z" fill="#58634F"/>
<path d="M160.78 77.2571C160.113 77.2675 159.455 77.1047 158.869 76.7844C158.302 76.4694 157.834 76.0015 157.519 75.4339C157.188 74.8108 157.02 74.1136 157.033 73.4081C157.017 72.6996 157.192 72 157.539 71.3823C157.85 70.8115 158.319 70.3426 158.89 70.0317C159.485 69.7211 160.146 69.5589 160.818 69.5589C161.489 69.5589 162.15 69.7211 162.745 70.0317C163.316 70.3426 163.785 70.8115 164.096 71.3823C164.443 72 164.618 72.6996 164.602 73.4081C164.617 74.1181 164.437 74.8185 164.082 75.4339C163.75 76.0046 163.266 76.4721 162.685 76.7844C162.098 77.0956 161.444 77.2579 160.78 77.2571ZM160.78 75.9066C161.168 75.9081 161.549 75.8104 161.888 75.6229C162.246 75.4277 162.54 75.1319 162.732 74.7721C162.958 74.3585 163.072 73.8929 163.063 73.4216C163.075 72.9516 162.966 72.4865 162.745 72.071C162.562 71.7117 162.275 71.4154 161.922 71.2202C161.583 71.0313 161.202 70.9335 160.814 70.9366C160.427 70.9351 160.046 71.0327 159.707 71.2202C159.366 71.4207 159.091 71.7164 158.917 72.071C158.707 72.4894 158.605 72.9537 158.62 73.4216C158.58 74.0961 158.794 74.7611 159.221 75.2853C159.422 75.4937 159.665 75.6577 159.934 75.767C160.202 75.8763 160.491 75.9284 160.78 75.9201V75.9066Z" fill="#58634F"/>
<path d="M169.917 69.5523C170.461 69.5423 171 69.6676 171.484 69.917C171.949 70.1582 172.331 70.5349 172.578 70.9974C172.853 71.531 172.987 72.1259 172.969 72.7261V77.1153H171.443V72.9556C171.481 72.4014 171.302 71.8541 170.943 71.4295C170.769 71.2493 170.559 71.1079 170.326 71.0148C170.093 70.9217 169.843 70.879 169.593 70.8893C169.343 70.8819 169.094 70.926 168.861 71.0189C168.629 71.1119 168.418 71.2516 168.242 71.4295C167.884 71.8541 167.705 72.4014 167.743 72.9556V77.1153H166.203V69.6874H167.743V70.5382C168.003 70.2292 168.331 69.9843 168.702 69.8224C169.085 69.6534 169.498 69.5616 169.917 69.5523Z" fill="#58634F"/>
<path fill-rule="evenodd" clip-rule="evenodd" d="M32.1359 22.6356V32.8861C29.072 30.6281 25.3383 29.4652 21.5342 29.584C17.9823 29.584 15.2115 30.3021 13.2217 31.7381C12.2605 32.3875 11.4829 33.2735 10.9636 34.3108C10.4444 35.3481 10.2011 36.5016 10.2573 37.6602C10.2573 42.6797 13.9802 45.1872 21.4262 45.1827H36.4643V23.4324C36.4643 14.2398 31.9828 9.64346 23.0198 9.64346H4.78763V0.0682068H23.587C30.9564 0.0682068 36.6174 1.89142 40.5699 5.53785C40.8873 5.83497 41.1912 6.13884 41.4883 6.45621C41.7399 6.13629 42.0082 5.82975 42.2918 5.53785C43.91 3.85262 45.8982 2.56721 48.0991 1.78338C50.0023 1.03934 51.9922 0.540143 54.0212 0.297797C55.7769 0.149239 58.1268 0.0682068 61.0912 0.0682068H79.006V9.64346H59.0384C57.5191 9.64346 56.3374 9.68398 55.5068 9.75826C54.4854 9.87977 53.487 10.1481 52.5424 10.5551C51.3908 11.0191 50.374 11.7643 49.5847 12.7227C48.1396 14.5459 47.4171 18.1833 47.4171 23.635V54.7647H21.0818C14.6262 54.7647 9.49873 53.3219 5.69924 50.4362C1.89975 47.5506 0 43.3437 0 37.8155C0 32.2558 2.01229 28.0309 6.03687 25.1408C10.0614 22.2507 15.1147 20.8078 21.1966 20.8123C24.9144 20.8614 28.6031 21.4762 32.1359 22.6356ZM100.614 45.311H52.6707V54.7647H102.505L102.343 54.6701C101.809 54.3393 101.371 53.8735 101.074 53.3196C100.759 52.6913 100.602 51.9963 100.614 51.2938C100.603 50.6045 100.761 49.9229 101.074 49.3085C101.366 48.7512 101.805 48.2842 102.343 47.958C102.881 47.6333 103.498 47.465 104.126 47.4718C104.617 47.4653 105.102 47.57 105.547 47.7782C105.991 47.9864 106.383 48.2926 106.692 48.6738V47.5934H108.245V54.7647H110.271V47.5934H111.81V48.6738C112.023 48.3083 112.328 48.0054 112.695 47.7959C113.109 47.572 113.575 47.4603 114.046 47.4718V49.0654H113.654C113.161 49.0399 112.678 49.2042 112.303 49.5246C111.954 49.9783 111.792 50.5487 111.851 51.1182V54.7647H116.882C116.829 54.743 116.78 54.7158 116.733 54.6836C116.185 54.361 115.737 53.8938 115.437 53.3331C115.132 52.7012 114.974 52.0088 114.974 51.3073C114.974 50.6059 115.132 49.9134 115.437 49.2815C115.735 48.7196 116.184 48.252 116.733 47.931C117.311 47.6106 117.963 47.4476 118.624 47.4583C119.42 47.4348 120.203 47.6719 120.852 48.1336C121.458 48.5779 121.885 49.2248 122.054 49.9568H120.393C120.264 49.6051 120.028 49.3028 119.718 49.0924C119.385 48.877 118.993 48.7686 118.597 48.7818C118.31 48.7722 118.025 48.828 117.763 48.945C117.501 49.062 117.269 49.2371 117.084 49.4571C116.723 50.014 116.531 50.6637 116.531 51.3276C116.531 51.9914 116.723 52.6411 117.084 53.1981C117.268 53.4192 117.499 53.5952 117.762 53.7123C118.024 53.8294 118.31 53.8845 118.597 53.8733C118.984 53.9043 119.371 53.802 119.693 53.5835C120.014 53.3649 120.252 53.0432 120.366 52.6714H122.027C121.833 53.3924 121.406 54.0288 120.812 54.4811C120.676 54.5837 120.531 54.6741 120.379 54.7512H123.573V45.2975L100.614 45.311ZM125.1 45.311V48.4577C125.369 48.1435 125.706 47.8942 126.085 47.7284C126.514 47.5524 126.973 47.4652 127.436 47.4718C127.963 47.4619 128.484 47.5874 128.949 47.8365C129.401 48.0819 129.768 48.4586 130.002 48.9169C130.277 49.4505 130.412 50.0454 130.394 50.6456V54.7647H132.352V47.5934H133.892V54.7647H137.025C136.911 54.7085 136.806 54.6357 136.714 54.5486C136.513 54.3405 136.359 54.0918 136.263 53.8192C136.166 53.5467 136.129 53.2566 136.154 52.9685V48.8493H135.276V47.5934H136.154V45.7431H137.707V47.5934H139.523V48.8493H137.687V52.9685C137.667 53.188 137.735 53.4064 137.876 53.5762C138.073 53.7129 138.312 53.7751 138.551 53.7518H139.503V54.7647H142.359C142.304 54.7445 142.252 54.7173 142.204 54.6836C141.637 54.368 141.169 53.9003 140.854 53.3331C140.545 52.7025 140.384 52.0095 140.384 51.3073C140.384 50.6051 140.545 49.9122 140.854 49.2815C141.151 48.7145 141.606 48.2455 142.164 47.931C142.761 47.6105 143.43 47.4478 144.108 47.4583C144.763 47.4483 145.409 47.6064 145.986 47.9175C146.525 48.2221 146.97 48.671 147.269 49.214C147.581 49.7993 147.739 50.4547 147.728 51.1182C147.729 51.3713 147.711 51.6242 147.674 51.8745H141.988C141.999 52.1463 142.064 52.4131 142.18 52.659C142.296 52.905 142.46 53.125 142.663 53.3061C142.859 53.4878 143.088 53.6291 143.339 53.7218C143.589 53.8145 143.855 53.8568 144.122 53.8463C144.485 53.8706 144.848 53.7843 145.161 53.5986C145.474 53.413 145.724 53.1368 145.878 52.8064H147.539C147.318 53.4848 146.887 54.0758 146.31 54.4946C146.18 54.5912 146.042 54.677 145.898 54.7512H150.625C150.572 54.7295 150.523 54.7023 150.476 54.6701C149.952 54.3473 149.523 53.8904 149.234 53.3466C148.929 52.7147 148.771 52.0223 148.771 51.3208C148.771 50.6194 148.929 49.9269 149.234 49.295C149.532 48.7331 149.981 48.2655 150.53 47.9445C151.108 47.6241 151.76 47.4612 152.421 47.4718C153.217 47.4483 154 47.6854 154.649 48.1471C155.255 48.5914 155.682 49.2383 155.851 49.9703H154.19C154.061 49.6186 153.825 49.3163 153.515 49.106C153.182 48.8905 152.79 48.7821 152.394 48.7953C152.107 48.7857 151.822 48.8415 151.56 48.9585C151.298 49.0755 151.066 49.2506 150.881 49.4706C150.52 50.0275 150.328 50.6772 150.328 51.3411C150.328 52.0049 150.52 52.6546 150.881 53.2116C151.065 53.4327 151.296 53.6087 151.559 53.7258C151.821 53.8429 152.107 53.898 152.394 53.8868C152.782 53.9154 153.169 53.8105 153.489 53.5894C153.81 53.3684 154.045 53.0445 154.156 52.6714H155.817C155.635 53.3927 155.22 54.0336 154.636 54.4946C154.5 54.5972 154.355 54.6876 154.204 54.7647H158.498C158.383 54.7069 158.277 54.6342 158.181 54.5486C157.981 54.3399 157.829 54.0909 157.733 53.8184C157.638 53.5459 157.601 53.2561 157.627 52.9685V48.8493H156.749V47.5934H157.627V45.7431H159.18V47.5934H160.99V48.8493H159.18V52.9685C159.161 53.188 159.229 53.4064 159.369 53.5762C159.566 53.7129 159.806 53.7751 160.045 53.7518H160.99V54.7647H163.806C163.354 54.5186 162.981 54.1485 162.732 53.6978C162.459 53.1633 162.325 52.569 162.34 51.9691V47.5934H163.867V51.7395C163.83 52.2977 164.009 52.8486 164.366 53.2791C164.543 53.4556 164.754 53.5935 164.986 53.6842C165.219 53.7748 165.467 53.8162 165.717 53.8058C165.966 53.8175 166.215 53.7766 166.448 53.6859C166.681 53.5952 166.892 53.4566 167.067 53.2791C167.434 52.8535 167.619 52.3003 167.581 51.7395V47.5934H169.12V54.7647H171.146V47.5934H172.686V48.6738C172.902 48.3094 173.209 48.007 173.577 47.7959C173.99 47.5696 174.456 47.4577 174.927 47.4718V49.0654H174.536C174.043 49.0392 173.56 49.2036 173.185 49.5246C172.833 49.9773 172.669 50.5478 172.726 51.1182V54.7647H177.811C177.735 54.7545 177.662 54.7317 177.595 54.6971C177.028 54.3815 176.56 53.9138 176.244 53.3466C175.918 52.7223 175.755 52.0252 175.771 51.3208C175.756 50.6181 175.913 49.9223 176.231 49.295C176.545 48.7224 177.019 48.2532 177.595 47.9445C178.192 47.624 178.862 47.4613 179.539 47.4718C180.194 47.4618 180.841 47.6199 181.417 47.931C181.958 48.2335 182.403 48.683 182.7 49.2275C183.012 49.8128 183.17 50.4683 183.159 51.1317C183.16 51.3848 183.142 51.6377 183.105 51.888H177.419C177.426 52.1576 177.487 52.4232 177.598 52.669C177.708 52.9149 177.867 53.1361 178.065 53.3197C178.262 53.5034 178.494 53.6458 178.748 53.7385C179.001 53.8312 179.27 53.8725 179.539 53.8598C179.903 53.8851 180.266 53.7991 180.579 53.6134C180.893 53.4276 181.143 53.1509 181.295 52.8199H182.956C182.738 53.4997 182.307 54.0914 181.727 54.5081C181.598 54.6062 181.46 54.6921 181.315 54.7647H183.672V45.311H134.047C134.074 45.4123 134.088 45.5167 134.087 45.6216C134.088 45.7495 134.064 45.8764 134.015 45.9948C133.967 46.1131 133.895 46.2207 133.805 46.3112C133.714 46.4016 133.607 46.4732 133.488 46.5218C133.37 46.5703 133.243 46.5949 133.115 46.594C132.861 46.5925 132.618 46.4905 132.44 46.3104C132.35 46.2223 132.279 46.1173 132.23 46.0013C132.181 45.8854 132.156 45.7609 132.156 45.6351C132.155 45.5297 132.171 45.4247 132.203 45.3245L125.1 45.311ZM167.574 54.7647V54.1569C167.377 54.4045 167.134 54.611 166.858 54.7647H167.574ZM128.841 54.7647V50.8751C128.881 50.3206 128.701 49.7726 128.341 49.349C128.167 49.1681 127.957 49.0263 127.724 48.9331C127.491 48.84 127.241 48.7976 126.99 48.8088C126.74 48.8014 126.491 48.8455 126.259 48.9384C126.027 49.0314 125.816 49.1711 125.64 49.349C125.283 49.7743 125.104 50.3211 125.14 50.8751V54.7647H128.841ZM106.692 54.7647V53.9273C106.427 54.2762 106.088 54.5622 105.699 54.7647H106.692ZM106.368 49.9703C106.594 50.3836 106.706 50.8498 106.692 51.3208C106.703 51.7916 106.592 52.2571 106.368 52.6714C106.179 53.0309 105.894 53.3304 105.544 53.5357C105.209 53.7342 104.826 53.837 104.436 53.8328C104.047 53.8343 103.665 53.7317 103.329 53.5357C102.974 53.3205 102.684 53.0123 102.492 52.6443C102.276 52.2275 102.169 51.763 102.181 51.2938C102.163 50.824 102.27 50.3579 102.492 49.9433C102.684 49.5935 102.969 49.3036 103.316 49.106C103.57 48.9559 103.852 48.8591 104.145 48.8214C104.438 48.7838 104.736 48.806 105.02 48.8869C105.304 48.9677 105.569 49.1054 105.798 49.2916C106.028 49.4779 106.217 49.7088 106.354 49.9703H106.368ZM146.121 50.6456C146.122 50.39 146.068 50.1372 145.964 49.9042C145.859 49.6712 145.705 49.4634 145.513 49.295C145.101 48.9507 144.578 48.7682 144.041 48.7818C143.542 48.7765 143.06 48.9598 142.69 49.295C142.304 49.6451 142.064 50.1269 142.015 50.6456H146.121ZM180.971 49.295C181.164 49.4626 181.319 49.6701 181.424 49.9034C181.529 50.1366 181.582 50.3898 181.579 50.6456H177.46C177.511 50.1276 177.751 49.6467 178.135 49.295C178.504 48.9598 178.987 48.7765 179.485 48.7818C180.027 48.7636 180.556 48.9464 180.971 49.295Z" fill="#58634F"/>
</g>
<defs>
<clipPath id="clip0_488_63">
<rect width="183.672" height="100" fill="white"/>
</clipPath>
</defs>
</svg>
