<svg width="24" height="24" viewBox="0 0 24 24" fill="none" xmlns="http://www.w3.org/2000/svg">
<path d="M20.6321 12.3607L12.4516 4.18618C12.3927 4.12716 12.3227 4.08034 12.2457 4.04839C12.1687 4.01644 12.0861 4 12.0027 4C11.9193 4 11.8368 4.01644 11.7598 4.04839C11.6827 4.08034 11.6128 4.12716 11.5539 4.18618L3.37338 12.3607C3.13505 12.599 3 12.9228 3 13.2604C3 13.9615 3.56999 14.5315 4.27107 14.5315H5.13301V20.3645C5.13301 20.716 5.41701 21 5.76854 21H10.7317V16.5513H12.956V21H18.2369C18.5884 21 18.8724 20.716 18.8724 20.3645V14.5315H19.7344C20.072 14.5315 20.3957 14.3984 20.6341 14.1581C21.1286 13.6616 21.1286 12.8572 20.6321 12.3607Z" fill="white"/>
</svg>
