<svg width="184" height="100" viewBox="0 0 184 100" fill="none" xmlns="http://www.w3.org/2000/svg"><g clip-path="url(#clip0_488_63)" fill="#58634F"><path d="M100.938 3.025A10.666 10.666 0 01104.74.777 12.652 12.652 0 01109.062 0a11.757 11.757 0 013.849.56 7.588 7.588 0 012.701 1.513 5.756 5.756 0 011.513 2.208c.343.805.517 1.671.513 2.546v10.46c0 .722 0 1.35.047 1.985s.068 1.182.128 1.729h-3.457a36.655 36.655 0 01-.128-3.107h-.108a7.434 7.434 0 01-3.066 2.81 9.692 9.692 0 01-4.106.817 9.552 9.552 0 01-2.701-.385 6.917 6.917 0 01-2.282-1.168 5.804 5.804 0 01-1.513-1.905 6.143 6.143 0 01-.56-2.7 6.022 6.022 0 01.864-3.323 6.754 6.754 0 012.418-2.16 11.262 11.262 0 013.592-1.216 24.068 24.068 0 014.403-.385h2.856v-.851a4.275 4.275 0 00-.304-1.56 4.044 4.044 0 00-.905-1.35 4.089 4.089 0 00-1.512-1 5.539 5.539 0 00-2.161-.385 8.106 8.106 0 00-2.026.216 7.704 7.704 0 00-1.512.56 5.86 5.86 0 00-1.25.737l-1.08.817-2.337-2.438zm10.98 8.103a24.55 24.55 0 00-2.856.176c-.898.074-1.783.262-2.634.56a5.341 5.341 0 00-1.944 1.21 2.77 2.77 0 00-.736 1.991 2.836 2.836 0 001.168 2.546 5.9 5.9 0 003.241.776 6.481 6.481 0 002.701-.513 5.332 5.332 0 001.817-1.431 5.493 5.493 0 00.992-1.898 7.8 7.8 0 00.304-2.12v-1.276l-2.053-.02zM123.263.52h3.889v3.153h.088a5.183 5.183 0 011.06-1.472 7.018 7.018 0 011.425-1.161 7.364 7.364 0 011.749-.736A6.225 6.225 0 01133.371 0c.587-.007 1.17.08 1.729.257l-.169 4.193a11.964 11.964 0 00-.952-.216 6.437 6.437 0 00-5.314 1.513c-1.004 1.066-1.508 2.723-1.513 4.97V21h-3.889V.52zm29.887 5.443a7.679 7.679 0 00-2.289-1.682 6.03 6.03 0 00-2.809-.608 6.17 6.17 0 00-2.809.608 5.556 5.556 0 00-2.026 1.594 7.589 7.589 0 00-1.209 2.336 9.536 9.536 0 00-.391 2.701 7.827 7.827 0 00.479 2.701 6.896 6.896 0 001.351 2.209 6.54 6.54 0 002.073 1.512c.856.353 1.775.53 2.701.52a6.394 6.394 0 002.809-.567 7.436 7.436 0 002.161-1.729l2.795 2.81a8.624 8.624 0 01-3.545 2.417c-1.355.497-2.79.746-4.234.736a11.822 11.822 0 01-4.375-.777 10.163 10.163 0 01-3.377-2.16 9.947 9.947 0 01-2.208-3.377 11.854 11.854 0 01-.776-4.369 11.84 11.84 0 01.776-4.362 10.29 10.29 0 012.208-3.41 10.026 10.026 0 013.377-2.202 11.47 11.47 0 014.389-.823 11.335 11.335 0 014.281.823 9.2 9.2 0 013.586 2.418l-2.938 2.68zM100.615 95.8a4.987 4.987 0 01.452-2.195c.28-.6.722-1.11 1.276-1.472a3.376 3.376 0 011.864-.513 3.38 3.38 0 012.195.675 3.484 3.484 0 011.188 1.992h-1.641a1.895 1.895 0 00-.635-.945 1.917 1.917 0 00-2.599.398 3.31 3.31 0 00-.541 2.026c-.039.716.15 1.425.541 2.026a1.799 1.799 0 001.492.736 1.702 1.702 0 001.742-1.283h1.641a3.697 3.697 0 01-1.202 1.972 3.281 3.281 0 01-2.181.722 3.376 3.376 0 01-1.864-.513 3.672 3.672 0 01-1.276-1.472 5.11 5.11 0 01-.452-2.154zm11.668 4.2a3.48 3.48 0 01-1.877-.513 3.67 3.67 0 01-1.317-1.472 4.834 4.834 0 01-.479-2.215 4.717 4.717 0 01.493-2.195 3.536 3.536 0 013.241-1.985 3.54 3.54 0 013.248 1.985 4.73 4.73 0 01.493 2.195 4.586 4.586 0 01-.507 2.195 3.737 3.737 0 01-1.35 1.492 3.656 3.656 0 01-1.945.513zm0-1.459c.385.002.762-.106 1.087-.31a2.2 2.2 0 00.838-.925 3.687 3.687 0 000-2.992 2.204 2.204 0 00-.811-.932 2.106 2.106 0 00-2.181 0 2.154 2.154 0 00-.783.932c-.21.467-.312.975-.297 1.486a3.09 3.09 0 00.601 2.026 1.935 1.935 0 001.546.715zm9.001-6.921a3.011 3.011 0 011.547.392 2.69 2.69 0 011.073 1.181c.277.589.412 1.234.392 1.884v4.795h-1.506v-4.545a2.477 2.477 0 00-.493-1.661 1.66 1.66 0 00-1.35-.587 1.698 1.698 0 00-1.351.587 2.477 2.477 0 00-.493 1.661v4.545h-1.519v-8.103h1.519v.931c.247-.334.571-.603.946-.783a2.796 2.796 0 011.235-.297zm7.604 8.38a3.424 3.424 0 01-1.553-.338 2.878 2.878 0 01-1.08-.945 2.589 2.589 0 01-.426-1.35h1.573a1.225 1.225 0 00.439.864c.287.235.65.357 1.02.344.35.023.697-.072.986-.27a.834.834 0 00.358-.675.725.725 0 00-.399-.675 7.5 7.5 0 00-1.235-.487 9.785 9.785 0 01-1.351-.486 2.435 2.435 0 01-.905-.722 2.026 2.026 0 01-.371-1.277c-.005-.419.115-.83.344-1.181.242-.373.583-.67.986-.858.469-.21.979-.314 1.493-.304a2.815 2.815 0 012.025.675 2.591 2.591 0 01.824 1.904h-1.512a1.257 1.257 0 00-.399-.87 1.41 1.41 0 00-.972-.325 1.448 1.448 0 00-.919.25.805.805 0 00-.324.676.764.764 0 00.216.547c.148.15.325.27.52.35.203.082.507.183.905.311.447.127.883.29 1.303.486.349.163.655.406.892.71.264.364.399.806.385 1.256.006.436-.113.865-.345 1.235a2.3 2.3 0 01-.986.851 3.262 3.262 0 01-1.492.304zm6.219-6.88v4.496a.946.946 0 00.189.676.926.926 0 00.675.189h.932v1.404h-1.175a2.187 2.187 0 01-1.573-.533 2.314 2.314 0 01-.547-1.722v-4.51h-.864v-1.352h.864v-2.025h1.533v2.026h1.783v1.35h-1.817zm4.673-.19c.201-.392.504-.724.878-.959a2.394 2.394 0 011.316-.351v1.735h-.385a1.779 1.779 0 00-1.35.5 2.611 2.611 0 00-.453 1.742v4.275h-1.519v-8.103h1.513v1.161zm10.257-1.182v8.103h-1.519v-.958c-.245.339-.57.612-.946.796a2.794 2.794 0 01-1.222.277 3.07 3.07 0 01-1.553-.398 2.766 2.766 0 01-1.08-1.175 4.264 4.264 0 01-.385-1.89v-4.775h1.499v4.524a2.57 2.57 0 00.493 1.682 1.852 1.852 0 002.086.43c.232-.1.441-.246.615-.43a2.504 2.504 0 00.506-1.682v-4.524l1.506.02zm1.493 4.052a5.09 5.09 0 01.452-2.195c.284-.6.728-1.109 1.283-1.472a3.376 3.376 0 011.864-.513c.788-.038 1.564.2 2.194.675a3.432 3.432 0 011.182 1.992h-1.634a1.957 1.957 0 00-.641-.945 1.912 1.912 0 00-2.593.398 3.3 3.3 0 00-.547 2.026 3.372 3.372 0 00.547 2.026 1.783 1.783 0 001.492.736 1.702 1.702 0 001.742-1.283h1.634a3.68 3.68 0 01-1.168 2.019 3.308 3.308 0 01-2.181.723 3.375 3.375 0 01-1.864-.514 3.746 3.746 0 01-1.283-1.472 5.211 5.211 0 01-.479-2.201zm10.257-2.68v4.496a.946.946 0 00.189.676.932.932 0 00.675.189h.932v1.404h-1.195a2.187 2.187 0 01-1.573-.533 2.344 2.344 0 01-.541-1.722v-4.51h-.911v-1.352h.871v-2.025h1.526v2.026h1.783v1.35h-1.756zm3.957-2.445a.896.896 0 01-.675-.311 1.2 1.2 0 010-1.533.896.896 0 011.048-.232c.116.054.22.133.302.232a1.172 1.172 0 010 1.533.868.868 0 01-.675.31zm.743 1.073v8.103h-1.52v-8.103h1.52zm5.172 8.252a3.5 3.5 0 01-1.877-.513 3.67 3.67 0 01-1.351-1.472 4.942 4.942 0 01-.479-2.215 4.717 4.717 0 01.493-2.195 3.641 3.641 0 011.351-1.472 3.786 3.786 0 013.808 0 3.655 3.655 0 011.351 1.472c.336.682.505 1.435.492 2.195a4.596 4.596 0 01-.506 2.195 3.746 3.746 0 01-1.384 1.492 3.68 3.68 0 01-1.898.513zm0-1.459c.387.004.767-.104 1.094-.31.361-.223.652-.544.838-.925a3.754 3.754 0 000-2.992 2.222 2.222 0 00-.818-.932 2.025 2.025 0 00-1.087-.303 2.091 2.091 0 00-1.094.303 2.204 2.204 0 00-.783.932 3.374 3.374 0 00-.29 1.486 3.088 3.088 0 00.594 2.026 1.941 1.941 0 001.546.715zm9.008-6.921a3 3 0 011.54.392 2.7 2.7 0 011.08 1.181c.272.59.404 1.235.385 1.884v4.795h-1.506v-4.545a2.477 2.477 0 00-.493-1.661 1.653 1.653 0 00-1.35-.587 1.7 1.7 0 00-1.351.587 2.512 2.512 0 00-.493 1.661v4.545h-1.512v-8.103h1.512v.931c.248-.332.573-.601.946-.783a2.808 2.808 0 011.242-.297zM102.64 70.775c.213-.368.521-.671.892-.878a2.645 2.645 0 011.35-.324v1.593h-.392a1.917 1.917 0 00-1.35.46 2.234 2.234 0 00-.459 1.593v3.916h-1.54v-7.427h1.499v1.067zm10.494 2.458a5.04 5.04 0 01-.054.756h-5.713a2.032 2.032 0 00.675 1.431c.399.362.921.555 1.459.54a1.803 1.803 0 001.756-1.04h1.661a3.375 3.375 0 01-1.229 1.689 3.593 3.593 0 01-2.188.675 3.842 3.842 0 01-1.918-.473 3.48 3.48 0 01-1.35-1.35 4.605 4.605 0 010-4.052 3.279 3.279 0 011.31-1.35 3.905 3.905 0 011.944-.473 3.832 3.832 0 011.878.46c.539.304.984.753 1.283 1.296.32.578.488 1.23.486 1.89zm-1.607-.487a1.787 1.787 0 00-.608-1.35 2.207 2.207 0 00-1.472-.513 1.98 1.98 0 00-1.351.513c-.385.35-.626.832-.675 1.35h4.106zm6.874-3.194a3.29 3.29 0 011.567.365 2.6 2.6 0 011.094 1.08c.275.534.409 1.129.391 1.73v4.388h-1.526v-4.16a2.137 2.137 0 00-.5-1.525 1.77 1.77 0 00-1.35-.54 1.83 1.83 0 00-1.351.54 2.14 2.14 0 00-.499 1.526v4.16h-1.54v-7.429h1.54v.851a2.63 2.63 0 01.958-.716c.384-.169.797-.26 1.216-.27zm8.245 7.705a3.828 3.828 0 01-1.904-.473 3.47 3.47 0 01-1.351-1.35 4.087 4.087 0 01-.486-2.026 3.952 3.952 0 01.5-2.026c.311-.57.779-1.04 1.35-1.35a4.184 4.184 0 013.863 0 3.45 3.45 0 011.35 1.35 4.05 4.05 0 01.5 2.026 3.968 3.968 0 01-.513 2.026 3.589 3.589 0 01-1.405 1.35 4.05 4.05 0 01-1.904.473zm0-1.35c.387.001.769-.097 1.107-.284.359-.197.655-.492.851-.85.223-.416.334-.88.324-1.351a2.815 2.815 0 00-.31-1.351 2.09 2.09 0 00-.824-.85 2.3 2.3 0 00-2.215 0 2.03 2.03 0 00-.797.85 2.81 2.81 0 00-.297 1.35 2.647 2.647 0 00.608 1.864 2.021 2.021 0 001.553.635v-.013zm8.258-.149l2.107-6.077h1.634l-2.836 7.428h-1.836l-2.823-7.428h1.648l2.106 6.077zm4.396-2.377a4.196 4.196 0 01.453-1.985 3.477 3.477 0 011.276-1.35 3.377 3.377 0 011.783-.487c.529-.01 1.054.11 1.526.351.408.205.767.495 1.053.851v-1.08h1.553v7.428h-1.553V76a3.147 3.147 0 01-1.067.878 3.474 3.474 0 01-3.295-.135 3.584 3.584 0 01-1.276-1.35 4.346 4.346 0 01-.453-2.013zm6.078 0a2.642 2.642 0 00-.325-1.35 2.258 2.258 0 00-.823-.865 2.228 2.228 0 00-2.222 0c-.351.2-.639.495-.831.851-.224.414-.333.88-.317 1.35-.01.47.1.935.317 1.351.193.366.479.674.831.891a2.2 2.2 0 001.107.297 2.156 2.156 0 001.938-1.16 2.7 2.7 0 00.338-1.338l-.013-.027zm5.382-2.431v4.12a.82.82 0 00.189.607c.196.138.436.2.675.175h.945v1.283h-1.215a2.344 2.344 0 01-1.594-.486 2.041 2.041 0 01-.448-.73 2.045 2.045 0 01-.106-.85V70.95h-.877v-1.256h.904v-1.85h1.554v1.85h1.809v1.256h-1.836zm4.011-2.242a.96.96 0 01-.676-.283.963.963 0 01-.21-.31.958.958 0 01-.073-.366.971.971 0 01.282-.703.963.963 0 01.704-.283.94.94 0 01.675.284c.18.179.282.422.284.675a.975.975 0 01-.278.699.966.966 0 01-.695.287h-.013zm.756.986v7.428h-1.567v-7.428h1.567zm5.253 7.563a3.858 3.858 0 01-1.911-.473 3.473 3.473 0 01-1.35-1.35 4.156 4.156 0 01-.486-2.026 3.954 3.954 0 01.506-2.026c.311-.57.78-1.04 1.351-1.35a4.165 4.165 0 013.855 0c.571.31 1.04.78 1.351 1.35.347.618.522 1.318.506 2.026a3.89 3.89 0 01-.52 2.026 3.574 3.574 0 01-1.397 1.35 4.056 4.056 0 01-1.905.473zm0-1.35a2.27 2.27 0 001.108-.284c.358-.195.652-.491.844-.85.226-.414.34-.88.331-1.351a2.727 2.727 0 00-.318-1.351 2.021 2.021 0 00-.823-.85 2.238 2.238 0 00-1.108-.284 2.269 2.269 0 00-1.107.283 2.02 2.02 0 00-.79.851 2.81 2.81 0 00-.297 1.35c-.04.675.174 1.34.601 1.864a2.076 2.076 0 001.559.635v-.013zm9.137-6.355a3.29 3.29 0 011.567.365c.465.241.847.618 1.094 1.08.275.534.409 1.129.391 1.73v4.388h-1.526v-4.16a2.137 2.137 0 00-.5-1.525 1.77 1.77 0 00-1.35-.54 1.83 1.83 0 00-1.351.54 2.14 2.14 0 00-.499 1.526v4.16h-1.54v-7.429h1.54v.851c.26-.309.588-.554.959-.716.383-.169.796-.26 1.215-.27z"/><path fill-rule="evenodd" clip-rule="evenodd" d="M32.136 22.636v10.25a16.977 16.977 0 00-10.602-3.302c-3.552 0-6.322.718-8.312 2.154a6.753 6.753 0 00-2.965 5.922c0 5.02 3.723 7.527 11.17 7.523h15.037v-21.75c0-9.193-4.481-13.79-13.444-13.79H4.788V.068h18.799c7.37 0 13.03 1.823 16.983 5.47.317.297.621.6.918.918.252-.32.52-.626.804-.918a15.052 15.052 0 015.807-3.755A24.121 24.121 0 0154.021.298c1.756-.149 4.106-.23 7.07-.23h17.915v9.575H59.038c-1.519 0-2.7.041-3.531.115a10.68 10.68 0 00-2.965.797 7.428 7.428 0 00-2.957 2.168c-1.445 1.823-2.168 5.46-2.168 10.912v31.13H21.082c-6.456 0-11.583-1.443-15.383-4.329C1.9 47.551 0 43.344 0 37.816c0-5.56 2.012-9.785 6.037-12.675 4.024-2.89 9.078-4.333 15.16-4.329 3.717.05 7.406.664 10.939 1.824zm68.478 22.675H52.671v9.454h49.834l-.162-.095a3.578 3.578 0 01-1.269-1.35 4.353 4.353 0 01-.46-2.026 4.221 4.221 0 01.46-1.985 3.455 3.455 0 011.269-1.351 3.379 3.379 0 011.783-.486 3.25 3.25 0 012.566 1.202v-1.08h1.553v7.17h2.026v-7.17h1.539v1.08c.213-.366.518-.669.885-.878.414-.224.88-.336 1.351-.324v1.593h-.392a1.926 1.926 0 00-1.351.46 2.236 2.236 0 00-.452 1.593v3.647h5.031a.796.796 0 01-.149-.081 3.461 3.461 0 01-1.296-1.35 4.66 4.66 0 010-4.053 3.422 3.422 0 011.296-1.35 3.774 3.774 0 011.891-.473 3.659 3.659 0 012.228.676 3.136 3.136 0 011.202 1.823h-1.661a1.79 1.79 0 00-.675-.865 1.947 1.947 0 00-1.121-.31 1.89 1.89 0 00-1.513.675 3.439 3.439 0 000 3.741 1.873 1.873 0 001.513.675 1.71 1.71 0 001.769-1.202h1.661a3.377 3.377 0 01-1.215 1.81 2.89 2.89 0 01-.433.27h3.194v-9.453l-22.959.013zm24.486 0v3.147c.269-.314.606-.564.985-.73a3.429 3.429 0 011.351-.256 3.082 3.082 0 011.513.364c.452.246.819.623 1.053 1.08.275.535.41 1.13.392 1.73v4.119h1.958v-7.172h1.54v7.172h3.133a1.268 1.268 0 01-.311-.216 2.017 2.017 0 01-.56-1.58v-4.12h-.878v-1.256h.878v-1.85h1.553v1.85h1.816v1.256h-1.836v4.12a.832.832 0 00.189.607c.197.137.436.2.675.176h.952v1.013h2.856a.674.674 0 01-.155-.081 3.48 3.48 0 01-1.35-1.35 4.604 4.604 0 010-4.053 3.317 3.317 0 011.31-1.35 3.98 3.98 0 011.944-.473 3.832 3.832 0 011.878.46c.539.304.984.753 1.283 1.296.312.585.47 1.24.459 1.904a5.03 5.03 0 01-.054.756h-5.686a2.03 2.03 0 00.675 1.432 2.026 2.026 0 001.459.54 1.802 1.802 0 001.756-1.04h1.661a3.381 3.381 0 01-1.641 1.945h4.727a.796.796 0 01-.149-.08 3.464 3.464 0 01-1.242-1.324 4.66 4.66 0 010-4.052 3.422 3.422 0 011.296-1.35 3.775 3.775 0 011.891-.473 3.659 3.659 0 012.228.675 3.136 3.136 0 011.202 1.823h-1.661a1.788 1.788 0 00-.675-.864 1.946 1.946 0 00-1.121-.31 1.89 1.89 0 00-1.513.675 3.439 3.439 0 000 3.74 1.873 1.873 0 001.513.676 1.707 1.707 0 001.762-1.216h1.661a3.374 3.374 0 01-1.181 1.824 2.931 2.931 0 01-.432.27h4.294a1.463 1.463 0 01-.317-.216 2.028 2.028 0 01-.554-1.58v-4.12h-.878v-1.256h.878v-1.85h1.553v1.85h1.81v1.256h-1.81v4.12a.842.842 0 00.189.607c.197.137.437.2.676.176h.945v1.013h2.816a2.705 2.705 0 01-1.074-1.067 3.602 3.602 0 01-.392-1.729v-4.376h1.527v4.146c-.037.559.142 1.11.499 1.54a1.813 1.813 0 001.351.527 1.784 1.784 0 001.35-.527c.367-.426.552-.979.514-1.54v-4.146h1.539v7.172h2.026v-7.172h1.54v1.08c.216-.364.523-.666.891-.877a2.645 2.645 0 011.35-.324v1.593h-.391a1.92 1.92 0 00-1.351.46 2.234 2.234 0 00-.459 1.593v3.647h5.085a.662.662 0 01-.216-.068 3.49 3.49 0 01-1.351-1.35 4.173 4.173 0 01-.473-2.026 4.277 4.277 0 01.46-2.026 3.372 3.372 0 011.364-1.35 3.982 3.982 0 011.944-.473 3.83 3.83 0 011.878.459c.541.303.986.752 1.283 1.297.312.585.47 1.24.459 1.904a5.03 5.03 0 01-.054.756h-5.686a2.026 2.026 0 002.12 1.972 1.795 1.795 0 001.756-1.04h1.661a3.332 3.332 0 01-1.229 1.688 2.614 2.614 0 01-.412.257h2.357V45.31h-49.625c.027.101.041.206.04.31a.956.956 0 01-.282.69.97.97 0 01-.69.283.957.957 0 01-.675-.284.948.948 0 01-.284-.675.99.99 0 01.047-.31l-7.103-.014zm42.474 9.454v-.608a2.42 2.42 0 01-.716.608h.716zm-38.733 0v-3.89a2.121 2.121 0 00-.5-1.526 1.766 1.766 0 00-1.351-.54 1.822 1.822 0 00-1.35.54 2.156 2.156 0 00-.5 1.526v3.89h3.701zm-22.149 0v-.838a2.967 2.967 0 01-.993.838h.993zm-.324-4.795c.226.414.338.88.324 1.35.011.472-.1.937-.324 1.351a2.174 2.174 0 01-1.932 1.162 2.18 2.18 0 01-1.107-.297 2.273 2.273 0 01-.837-.892 2.78 2.78 0 01-.311-1.35c-.018-.47.089-.936.311-1.35.192-.35.477-.64.824-.838a2.175 2.175 0 012.482.186c.23.186.419.417.556.678h.014zm39.753.676a1.788 1.788 0 00-.608-1.35 2.208 2.208 0 00-1.472-.514 1.98 1.98 0 00-1.351.513c-.386.35-.626.832-.675 1.35h4.106zm34.85-1.351a1.767 1.767 0 01.608 1.35h-4.119c.051-.517.291-.998.675-1.35a1.978 1.978 0 011.35-.513 2.195 2.195 0 011.486.513z"/></g><defs><clipPath id="clip0_488_63"><path fill="#fff" d="M0 0h183.672v100H0z"/></clipPath></defs></svg>